<?xml version="1.0" encoding="UTF-8"?>
    <svg width="800" height="1550" version="1.1" xmlns="http://www.w3.org/2000/svg">
    <style>
        .row { font: 14px Arial; fill: #64748b; }
        .score { font: bold 14px Arial; fill: #64748b; }
    </style>
    <text x="400" y="40" text-anchor="middle" font-size="20px" font-weight="bold" fill="#64748b">Channel Performance Overview</text><rect x="150" y="80" width="500" height="30" fill="#eee" rx="5"/><rect x="150" y="80" width="375.45000000000005" height="30" fill="#22c55e" rx="5"/>
        <text x="140" y="100" text-anchor="end" class="row">ALL</text>
        <text x="660" y="100" text-anchor="start" class="score">75.1% (S:100%)</text><rect x="150" y="130" width="500" height="30" fill="#eee" rx="5"/><rect x="150" y="130" width="388.65000000000003" height="30" fill="#22c55e" rx="5"/>
        <text x="140" y="150" text-anchor="end" class="row">configs.txt</text>
        <text x="660" y="150" text-anchor="start" class="score">77.7% (S:100%)</text><rect x="150" y="180" width="500" height="30" fill="#eee" rx="5"/><rect x="150" y="180" width="440.79999999999995" height="30" fill="#22c55e" rx="5"/>
        <text x="140" y="200" text-anchor="end" class="row">IP_CF_Config</text>
        <text x="660" y="200" text-anchor="start" class="score">88.2% (S:100%)</text><rect x="150" y="230" width="500" height="30" fill="#eee" rx="5"/><rect x="150" y="230" width="441.04999999999995" height="30" fill="#22c55e" rx="5"/>
        <text x="140" y="250" text-anchor="end" class="row">prrofile_purple</text>
        <text x="660" y="250" text-anchor="start" class="score">88.2% (S:100%)</text><rect x="150" y="280" width="500" height="30" fill="#eee" rx="5"/><rect x="150" y="280" width="477.25" height="30" fill="#22c55e" rx="5"/>
        <text x="140" y="300" text-anchor="end" class="row">meli_proxyy</text>
        <text x="660" y="300" text-anchor="start" class="score">95.5% (S:100%)</text><rect x="150" y="330" width="500" height="30" fill="#eee" rx="5"/><rect x="150" y="330" width="457.75" height="30" fill="#22c55e" rx="5"/>
        <text x="140" y="350" text-anchor="end" class="row">ViProxys</text>
        <text x="660" y="350" text-anchor="start" class="score">91.5% (S:100%)</text><rect x="150" y="380" width="500" height="30" fill="#eee" rx="5"/><rect x="150" y="380" width="456.9" height="30" fill="#22c55e" rx="5"/>
        <text x="140" y="400" text-anchor="end" class="row">heyatserver</text>
        <text x="660" y="400" text-anchor="start" class="score">91.4% (S:100%)</text><rect x="150" y="430" width="500" height="30" fill="#eee" rx="5"/><rect x="150" y="430" width="384.15" height="30" fill="#22c55e" rx="5"/>
        <text x="140" y="450" text-anchor="end" class="row">hajmvpn</text>
        <text x="660" y="450" text-anchor="start" class="score">76.8% (S:100%)</text><rect x="150" y="480" width="500" height="30" fill="#eee" rx="5"/><rect x="150" y="480" width="380.3" height="30" fill="#22c55e" rx="5"/>
        <text x="140" y="500" text-anchor="end" class="row">ConfigsHUB2</text>
        <text x="660" y="500" text-anchor="start" class="score">76.1% (S:100%)</text><rect x="150" y="530" width="500" height="30" fill="#eee" rx="5"/><rect x="150" y="530" width="478.0" height="30" fill="#22c55e" rx="5"/>
        <text x="140" y="550" text-anchor="end" class="row">v2rayNG_021</text>
        <text x="660" y="550" text-anchor="start" class="score">95.6% (S:100%)</text><rect x="150" y="580" width="500" height="30" fill="#eee" rx="5"/><rect x="150" y="580" width="440.65" height="30" fill="#22c55e" rx="5"/>
        <text x="140" y="600" text-anchor="end" class="row">DailyV2RY</text>
        <text x="660" y="600" text-anchor="start" class="score">88.1% (S:100%)</text><rect x="150" y="630" width="500" height="30" fill="#eee" rx="5"/><rect x="150" y="630" width="385.7" height="30" fill="#22c55e" rx="5"/>
        <text x="140" y="650" text-anchor="end" class="row">FreeV2rays</text>
        <text x="660" y="650" text-anchor="start" class="score">77.1% (S:100%)</text><rect x="150" y="680" width="500" height="30" fill="#eee" rx="5"/><rect x="150" y="680" width="498.95000000000005" height="30" fill="#22c55e" rx="5"/>
        <text x="140" y="700" text-anchor="end" class="row">DirectVPN</text>
        <text x="660" y="700" text-anchor="start" class="score">99.8% (S:100%)</text><rect x="150" y="730" width="500" height="30" fill="#eee" rx="5"/><rect x="150" y="730" width="452.70000000000005" height="30" fill="#22c55e" rx="5"/>
        <text x="140" y="750" text-anchor="end" class="row">VmessProtocol</text>
        <text x="660" y="750" text-anchor="start" class="score">90.5% (S:100%)</text><rect x="150" y="780" width="500" height="30" fill="#eee" rx="5"/><rect x="150" y="780" width="441.59999999999997" height="30" fill="#22c55e" rx="5"/>
        <text x="140" y="800" text-anchor="end" class="row">flyv2ray</text>
        <text x="660" y="800" text-anchor="start" class="score">88.3% (S:100%)</text><rect x="150" y="830" width="500" height="30" fill="#eee" rx="5"/><rect x="150" y="830" width="409.65000000000003" height="30" fill="#22c55e" rx="5"/>
        <text x="140" y="850" text-anchor="end" class="row">configV2rayForFree</text>
        <text x="660" y="850" text-anchor="start" class="score">81.9% (S:100%)</text><rect x="150" y="880" width="500" height="30" fill="#eee" rx="5"/><rect x="150" y="880" width="408.45" height="30" fill="#22c55e" rx="5"/>
        <text x="140" y="900" text-anchor="end" class="row">shokhmiplus</text>
        <text x="660" y="900" text-anchor="start" class="score">81.7% (S:100%)</text><rect x="150" y="930" width="500" height="30" fill="#eee" rx="5"/><rect x="150" y="930" width="394.79999999999995" height="30" fill="#22c55e" rx="5"/>
        <text x="140" y="950" text-anchor="end" class="row">hormozvpn</text>
        <text x="660" y="950" text-anchor="start" class="score">79.0% (S:100%)</text><rect x="150" y="980" width="500" height="30" fill="#eee" rx="5"/><rect x="150" y="980" width="471.2" height="30" fill="#22c55e" rx="5"/>
        <text x="140" y="1000" text-anchor="end" class="row">Artemisvpn1</text>
        <text x="660" y="1000" text-anchor="start" class="score">94.2% (S:100%)</text><rect x="150" y="1030" width="500" height="30" fill="#eee" rx="5"/><rect x="150" y="1030" width="350.0" height="30" fill="#22c55e" rx="5"/>
        <text x="140" y="1050" text-anchor="end" class="row">ShadowProxy66</text>
        <text x="660" y="1050" text-anchor="start" class="score">70.0% (S:100%)</text><rect x="150" y="1080" width="500" height="30" fill="#eee" rx="5"/><rect x="150" y="1080" width="480.25" height="30" fill="#22c55e" rx="5"/>
        <text x="140" y="1100" text-anchor="end" class="row">v2ray_free_conf</text>
        <text x="660" y="1100" text-anchor="start" class="score">96.0% (S:100%)</text><rect x="150" y="1130" width="500" height="30" fill="#eee" rx="5"/><rect x="150" y="1130" width="484.65000000000003" height="30" fill="#22c55e" rx="5"/>
        <text x="140" y="1150" text-anchor="end" class="row">V2rayNG3</text>
        <text x="660" y="1150" text-anchor="start" class="score">96.9% (S:100%)</text><rect x="150" y="1180" width="500" height="30" fill="#eee" rx="5"/><rect x="150" y="1180" width="406.1" height="30" fill="#22c55e" rx="5"/>
        <text x="140" y="1200" text-anchor="end" class="row">CYGAG</text>
        <text x="660" y="1200" text-anchor="start" class="score">81.2% (S:100%)</text><rect x="150" y="1230" width="500" height="30" fill="#eee" rx="5"/><rect x="150" y="1230" width="466.59999999999997" height="30" fill="#22c55e" rx="5"/>
        <text x="140" y="1250" text-anchor="end" class="row">Awlix_ir</text>
        <text x="660" y="1250" text-anchor="start" class="score">93.3% (S:100%)</text><rect x="150" y="1280" width="500" height="30" fill="#eee" rx="5"/><rect x="150" y="1280" width="430.20000000000005" height="30" fill="#22c55e" rx="5"/>
        <text x="140" y="1300" text-anchor="end" class="row">vpnfail_vless</text>
        <text x="660" y="1300" text-anchor="start" class="score">86.0% (S:100%)</text><rect x="150" y="1330" width="500" height="30" fill="#eee" rx="5"/><rect x="150" y="1330" width="459.45" height="30" fill="#22c55e" rx="5"/>
        <text x="140" y="1350" text-anchor="end" class="row">OutlineReleasedKey</text>
        <text x="660" y="1350" text-anchor="start" class="score">91.9% (S:100%)</text><rect x="150" y="1380" width="500" height="30" fill="#eee" rx="5"/><rect x="150" y="1380" width="450.90000000000003" height="30" fill="#22c55e" rx="5"/>
        <text x="140" y="1400" text-anchor="end" class="row">poroxybaz</text>
        <text x="660" y="1400" text-anchor="start" class="score">90.2% (S:100%)</text><rect x="150" y="1430" width="500" height="30" fill="#eee" rx="5"/><rect x="150" y="1430" width="459.45" height="30" fill="#22c55e" rx="5"/>
        <text x="140" y="1450" text-anchor="end" class="row">V2pedia</text>
        <text x="660" y="1450" text-anchor="start" class="score">91.9% (S:100%)</text><rect x="150" y="1480" width="500" height="30" fill="#eee" rx="5"/><rect x="150" y="1480" width="467.45" height="30" fill="#22c55e" rx="5"/>
        <text x="140" y="1500" text-anchor="end" class="row">xs_filternet</text>
        <text x="660" y="1500" text-anchor="start" class="score">93.5% (S:100%)</text></svg>