<?xml version="1.0" encoding="UTF-8"?>
    <svg width="800" height="2400" version="1.1" xmlns="http://www.w3.org/2000/svg">
    <style>
        .row { font: 14px Arial; fill: #64748b; }
        .score { font: bold 14px Arial; fill: #64748b; }
    </style>
    <text x="400" y="40" text-anchor="middle" font-size="20px" font-weight="bold" fill="#64748b">Channel Performance Overview</text><rect x="150" y="80" width="500" height="30" fill="#eee" rx="5"/><rect x="150" y="80" width="375.34999999999997" height="30" fill="#22c55e" rx="5"/>
        <text x="140" y="100" text-anchor="end" class="row">ALL</text>
        <text x="660" y="100" text-anchor="start" class="score">75.1% (S:100%)</text><rect x="150" y="130" width="500" height="30" fill="#eee" rx="5"/><rect x="150" y="130" width="446.45000000000005" height="30" fill="#22c55e" rx="5"/>
        <text x="140" y="150" text-anchor="end" class="row">IP_CF_Config</text>
        <text x="660" y="150" text-anchor="start" class="score">89.3% (S:100%)</text><rect x="150" y="180" width="500" height="30" fill="#eee" rx="5"/><rect x="150" y="180" width="379.4" height="30" fill="#22c55e" rx="5"/>
        <text x="140" y="200" text-anchor="end" class="row">nufilter</text>
        <text x="660" y="200" text-anchor="start" class="score">75.9% (S:100%)</text><rect x="150" y="230" width="500" height="30" fill="#eee" rx="5"/><rect x="150" y="230" width="436.4" height="30" fill="#22c55e" rx="5"/>
        <text x="140" y="250" text-anchor="end" class="row">prrofile_purple</text>
        <text x="660" y="250" text-anchor="start" class="score">87.3% (S:100%)</text><rect x="150" y="280" width="500" height="30" fill="#eee" rx="5"/><rect x="150" y="280" width="416.0" height="30" fill="#22c55e" rx="5"/>
        <text x="140" y="300" text-anchor="end" class="row">proxy_shadosocks</text>
        <text x="660" y="300" text-anchor="start" class="score">83.2% (S:100%)</text><rect x="150" y="330" width="500" height="30" fill="#eee" rx="5"/><rect x="150" y="330" width="431.2" height="30" fill="#22c55e" rx="5"/>
        <text x="140" y="350" text-anchor="end" class="row">meli_proxyy</text>
        <text x="660" y="350" text-anchor="start" class="score">86.2% (S:100%)</text><rect x="150" y="380" width="500" height="30" fill="#eee" rx="5"/><rect x="150" y="380" width="459.6" height="30" fill="#22c55e" rx="5"/>
        <text x="140" y="400" text-anchor="end" class="row">ViProxys</text>
        <text x="660" y="400" text-anchor="start" class="score">91.9% (S:100%)</text><rect x="150" y="430" width="500" height="30" fill="#eee" rx="5"/><rect x="150" y="430" width="462.29999999999995" height="30" fill="#22c55e" rx="5"/>
        <text x="140" y="450" text-anchor="end" class="row">heyatserver</text>
        <text x="660" y="450" text-anchor="start" class="score">92.5% (S:100%)</text><rect x="150" y="480" width="500" height="30" fill="#eee" rx="5"/><rect x="150" y="480" width="463.8" height="30" fill="#22c55e" rx="5"/>
        <text x="140" y="500" text-anchor="end" class="row">ShadowsocksM</text>
        <text x="660" y="500" text-anchor="start" class="score">92.8% (S:100%)</text><rect x="150" y="530" width="500" height="30" fill="#eee" rx="5"/><rect x="150" y="530" width="380.5" height="30" fill="#22c55e" rx="5"/>
        <text x="140" y="550" text-anchor="end" class="row">hajmvpn</text>
        <text x="660" y="550" text-anchor="start" class="score">76.1% (S:100%)</text><rect x="150" y="580" width="500" height="30" fill="#eee" rx="5"/><rect x="150" y="580" width="75.0" height="30" fill="#ef4444" rx="5"/>
        <text x="140" y="600" text-anchor="end" class="row">daily_configs</text>
        <text x="660" y="600" text-anchor="start" class="score">15.0% (S:0%)</text><rect x="150" y="630" width="500" height="30" fill="#eee" rx="5"/><rect x="150" y="630" width="404.3" height="30" fill="#22c55e" rx="5"/>
        <text x="140" y="650" text-anchor="end" class="row">FreeStrongVpn</text>
        <text x="660" y="650" text-anchor="start" class="score">80.9% (S:100%)</text><rect x="150" y="680" width="500" height="30" fill="#eee" rx="5"/><rect x="150" y="680" width="398.8" height="30" fill="#22c55e" rx="5"/>
        <text x="140" y="700" text-anchor="end" class="row">ConfigsHUB2</text>
        <text x="660" y="700" text-anchor="start" class="score">79.8% (S:100%)</text><rect x="150" y="730" width="500" height="30" fill="#eee" rx="5"/><rect x="150" y="730" width="439.09999999999997" height="30" fill="#22c55e" rx="5"/>
        <text x="140" y="750" text-anchor="end" class="row">FreakConfig</text>
        <text x="660" y="750" text-anchor="start" class="score">87.8% (S:100%)</text><rect x="150" y="780" width="500" height="30" fill="#eee" rx="5"/><rect x="150" y="780" width="404.15" height="30" fill="#22c55e" rx="5"/>
        <text x="140" y="800" text-anchor="end" class="row">v2rayNG_021</text>
        <text x="660" y="800" text-anchor="start" class="score">80.8% (S:100%)</text><rect x="150" y="830" width="500" height="30" fill="#eee" rx="5"/><rect x="150" y="830" width="431.45000000000005" height="30" fill="#22c55e" rx="5"/>
        <text x="140" y="850" text-anchor="end" class="row">DailyV2RY</text>
        <text x="660" y="850" text-anchor="start" class="score">86.3% (S:100%)</text><rect x="150" y="880" width="500" height="30" fill="#eee" rx="5"/><rect x="150" y="880" width="385.4" height="30" fill="#22c55e" rx="5"/>
        <text x="140" y="900" text-anchor="end" class="row">FreeV2rays</text>
        <text x="660" y="900" text-anchor="start" class="score">77.1% (S:100%)</text><rect x="150" y="930" width="500" height="30" fill="#eee" rx="5"/><rect x="150" y="930" width="498.65000000000003" height="30" fill="#22c55e" rx="5"/>
        <text x="140" y="950" text-anchor="end" class="row">DirectVPN</text>
        <text x="660" y="950" text-anchor="start" class="score">99.7% (S:100%)</text><rect x="150" y="980" width="500" height="30" fill="#eee" rx="5"/><rect x="150" y="980" width="75.0" height="30" fill="#ef4444" rx="5"/>
        <text x="140" y="1000" text-anchor="end" class="row">proxystore11</text>
        <text x="660" y="1000" text-anchor="start" class="score">15.0% (S:0%)</text><rect x="150" y="1030" width="500" height="30" fill="#eee" rx="5"/><rect x="150" y="1030" width="454.90000000000003" height="30" fill="#22c55e" rx="5"/>
        <text x="140" y="1050" text-anchor="end" class="row">VmessProtocol</text>
        <text x="660" y="1050" text-anchor="start" class="score">91.0% (S:100%)</text><rect x="150" y="1080" width="500" height="30" fill="#eee" rx="5"/><rect x="150" y="1080" width="435.20000000000005" height="30" fill="#22c55e" rx="5"/>
        <text x="140" y="1100" text-anchor="end" class="row">flyv2ray</text>
        <text x="660" y="1100" text-anchor="start" class="score">87.0% (S:100%)</text><rect x="150" y="1130" width="500" height="30" fill="#eee" rx="5"/><rect x="150" y="1130" width="446.59999999999997" height="30" fill="#22c55e" rx="5"/>
        <text x="140" y="1150" text-anchor="end" class="row">free4allVPN</text>
        <text x="660" y="1150" text-anchor="start" class="score">89.3% (S:100%)</text><rect x="150" y="1180" width="500" height="30" fill="#eee" rx="5"/><rect x="150" y="1180" width="401.75" height="30" fill="#22c55e" rx="5"/>
        <text x="140" y="1200" text-anchor="end" class="row">configV2rayForFree</text>
        <text x="660" y="1200" text-anchor="start" class="score">80.3% (S:100%)</text><rect x="150" y="1230" width="500" height="30" fill="#eee" rx="5"/><rect x="150" y="1230" width="75.0" height="30" fill="#ef4444" rx="5"/>
        <text x="140" y="1250" text-anchor="end" class="row">UnlimitedDev</text>
        <text x="660" y="1250" text-anchor="start" class="score">15.0% (S:0%)</text><rect x="150" y="1280" width="500" height="30" fill="#eee" rx="5"/><rect x="150" y="1280" width="386.70000000000005" height="30" fill="#22c55e" rx="5"/>
        <text x="140" y="1300" text-anchor="end" class="row">shokhmiplus</text>
        <text x="660" y="1300" text-anchor="start" class="score">77.3% (S:100%)</text><rect x="150" y="1330" width="500" height="30" fill="#eee" rx="5"/><rect x="150" y="1330" width="389.4" height="30" fill="#22c55e" rx="5"/>
        <text x="140" y="1350" text-anchor="end" class="row">hormozvpn</text>
        <text x="660" y="1350" text-anchor="start" class="score">77.9% (S:100%)</text><rect x="150" y="1380" width="500" height="30" fill="#eee" rx="5"/><rect x="150" y="1380" width="421.45000000000005" height="30" fill="#22c55e" rx="5"/>
        <text x="140" y="1400" text-anchor="end" class="row">nofiltering2</text>
        <text x="660" y="1400" text-anchor="start" class="score">84.3% (S:100%)</text><rect x="150" y="1430" width="500" height="30" fill="#eee" rx="5"/><rect x="150" y="1430" width="75.0" height="30" fill="#ef4444" rx="5"/>
        <text x="140" y="1450" text-anchor="end" class="row">daily_configs</text>
        <text x="660" y="1450" text-anchor="start" class="score">15.0% (S:0%)</text><rect x="150" y="1480" width="500" height="30" fill="#eee" rx="5"/><rect x="150" y="1480" width="75.0" height="30" fill="#ef4444" rx="5"/>
        <text x="140" y="1500" text-anchor="end" class="row">mobilesignal</text>
        <text x="660" y="1500" text-anchor="start" class="score">15.0% (S:0%)</text><rect x="150" y="1530" width="500" height="30" fill="#eee" rx="5"/><rect x="150" y="1530" width="435.34999999999997" height="30" fill="#22c55e" rx="5"/>
        <text x="140" y="1550" text-anchor="end" class="row">vpnowl</text>
        <text x="660" y="1550" text-anchor="start" class="score">87.1% (S:100%)</text><rect x="150" y="1580" width="500" height="30" fill="#eee" rx="5"/><rect x="150" y="1580" width="350.65" height="30" fill="#22c55e" rx="5"/>
        <text x="140" y="1600" text-anchor="end" class="row">Artemisvpn1</text>
        <text x="660" y="1600" text-anchor="start" class="score">70.1% (S:100%)</text><rect x="150" y="1630" width="500" height="30" fill="#eee" rx="5"/><rect x="150" y="1630" width="380.05" height="30" fill="#22c55e" rx="5"/>
        <text x="140" y="1650" text-anchor="end" class="row">ShadowProxy66</text>
        <text x="660" y="1650" text-anchor="start" class="score">76.0% (S:100%)</text><rect x="150" y="1680" width="500" height="30" fill="#eee" rx="5"/><rect x="150" y="1680" width="473.45" height="30" fill="#22c55e" rx="5"/>
        <text x="140" y="1700" text-anchor="end" class="row">v2ray_free_conf</text>
        <text x="660" y="1700" text-anchor="start" class="score">94.7% (S:100%)</text><rect x="150" y="1730" width="500" height="30" fill="#eee" rx="5"/><rect x="150" y="1730" width="452.35" height="30" fill="#22c55e" rx="5"/>
        <text x="140" y="1750" text-anchor="end" class="row">V2rayNG3</text>
        <text x="660" y="1750" text-anchor="start" class="score">90.5% (S:100%)</text><rect x="150" y="1780" width="500" height="30" fill="#eee" rx="5"/><rect x="150" y="1780" width="436.04999999999995" height="30" fill="#22c55e" rx="5"/>
        <text x="140" y="1800" text-anchor="end" class="row">free_config47</text>
        <text x="660" y="1800" text-anchor="start" class="score">87.2% (S:100%)</text><rect x="150" y="1830" width="500" height="30" fill="#eee" rx="5"/><rect x="150" y="1830" width="75.0" height="30" fill="#ef4444" rx="5"/>
        <text x="140" y="1850" text-anchor="end" class="row">Free_V2ray_Config</text>
        <text x="660" y="1850" text-anchor="start" class="score">15.0% (S:0%)</text><rect x="150" y="1880" width="500" height="30" fill="#eee" rx="5"/><rect x="150" y="1880" width="329.4" height="30" fill="#eab308" rx="5"/>
        <text x="140" y="1900" text-anchor="end" class="row">CYGAG</text>
        <text x="660" y="1900" text-anchor="start" class="score">65.9% (S:100%)</text><rect x="150" y="1930" width="500" height="30" fill="#eee" rx="5"/><rect x="150" y="1930" width="466.3" height="30" fill="#22c55e" rx="5"/>
        <text x="140" y="1950" text-anchor="end" class="row">Awlix_ir</text>
        <text x="660" y="1950" text-anchor="start" class="score">93.3% (S:100%)</text><rect x="150" y="1980" width="500" height="30" fill="#eee" rx="5"/><rect x="150" y="1980" width="429.90000000000003" height="30" fill="#22c55e" rx="5"/>
        <text x="140" y="2000" text-anchor="end" class="row">vmess_vless_v2rayng</text>
        <text x="660" y="2000" text-anchor="start" class="score">86.0% (S:100%)</text><rect x="150" y="2030" width="500" height="30" fill="#eee" rx="5"/><rect x="150" y="2030" width="430.0" height="30" fill="#22c55e" rx="5"/>
        <text x="140" y="2050" text-anchor="end" class="row">vpnfail_vless</text>
        <text x="660" y="2050" text-anchor="start" class="score">86.0% (S:100%)</text><rect x="150" y="2080" width="500" height="30" fill="#eee" rx="5"/><rect x="150" y="2080" width="414.85" height="30" fill="#22c55e" rx="5"/>
        <text x="140" y="2100" text-anchor="end" class="row">OutlineReleasedKey</text>
        <text x="660" y="2100" text-anchor="start" class="score">83.0% (S:100%)</text><rect x="150" y="2130" width="500" height="30" fill="#eee" rx="5"/><rect x="150" y="2130" width="75.0" height="30" fill="#ef4444" rx="5"/>
        <text x="140" y="2150" text-anchor="end" class="row">v2ray_configs_pool</text>
        <text x="660" y="2150" text-anchor="start" class="score">15.0% (S:0%)</text><rect x="150" y="2180" width="500" height="30" fill="#eee" rx="5"/><rect x="150" y="2180" width="440.6" height="30" fill="#22c55e" rx="5"/>
        <text x="140" y="2200" text-anchor="end" class="row">poroxybaz</text>
        <text x="660" y="2200" text-anchor="start" class="score">88.1% (S:100%)</text><rect x="150" y="2230" width="500" height="30" fill="#eee" rx="5"/><rect x="150" y="2230" width="382.8" height="30" fill="#22c55e" rx="5"/>
        <text x="140" y="2250" text-anchor="end" class="row">ZibaNabz</text>
        <text x="660" y="2250" text-anchor="start" class="score">76.6% (S:100%)</text><rect x="150" y="2280" width="500" height="30" fill="#eee" rx="5"/><rect x="150" y="2280" width="460.5" height="30" fill="#22c55e" rx="5"/>
        <text x="140" y="2300" text-anchor="end" class="row">V2pedia</text>
        <text x="660" y="2300" text-anchor="start" class="score">92.1% (S:100%)</text><rect x="150" y="2330" width="500" height="30" fill="#eee" rx="5"/><rect x="150" y="2330" width="467.2" height="30" fill="#22c55e" rx="5"/>
        <text x="140" y="2350" text-anchor="end" class="row">xs_filternet</text>
        <text x="660" y="2350" text-anchor="start" class="score">93.4% (S:100%)</text></svg>