<?xml version="1.0" encoding="UTF-8"?>
    <svg width="800" height="2400" version="1.1" xmlns="http://www.w3.org/2000/svg">
    <style>
        .row { font: 14px Arial; fill: #64748b; }
        .score { font: bold 14px Arial; fill: #64748b; }
    </style>
    <text x="400" y="40" text-anchor="middle" font-size="20px" font-weight="bold" fill="#64748b">Channel Performance Overview</text><rect x="150" y="80" width="500" height="30" fill="#eee" rx="5"/><rect x="150" y="80" width="375.45000000000005" height="30" fill="#22c55e" rx="5"/>
        <text x="140" y="100" text-anchor="end" class="row">ALL</text>
        <text x="660" y="100" text-anchor="start" class="score">75.1% (S:100%)</text><rect x="150" y="130" width="500" height="30" fill="#eee" rx="5"/><rect x="150" y="130" width="432.84999999999997" height="30" fill="#22c55e" rx="5"/>
        <text x="140" y="150" text-anchor="end" class="row">IP_CF_Config</text>
        <text x="660" y="150" text-anchor="start" class="score">86.6% (S:100%)</text><rect x="150" y="180" width="500" height="30" fill="#eee" rx="5"/><rect x="150" y="180" width="362.9" height="30" fill="#22c55e" rx="5"/>
        <text x="140" y="200" text-anchor="end" class="row">nufilter</text>
        <text x="660" y="200" text-anchor="start" class="score">72.6% (S:100%)</text><rect x="150" y="230" width="500" height="30" fill="#eee" rx="5"/><rect x="150" y="230" width="434.65000000000003" height="30" fill="#22c55e" rx="5"/>
        <text x="140" y="250" text-anchor="end" class="row">prrofile_purple</text>
        <text x="660" y="250" text-anchor="start" class="score">86.9% (S:100%)</text><rect x="150" y="280" width="500" height="30" fill="#eee" rx="5"/><rect x="150" y="280" width="415.6" height="30" fill="#22c55e" rx="5"/>
        <text x="140" y="300" text-anchor="end" class="row">proxy_shadosocks</text>
        <text x="660" y="300" text-anchor="start" class="score">83.1% (S:100%)</text><rect x="150" y="330" width="500" height="30" fill="#eee" rx="5"/><rect x="150" y="330" width="429.3" height="30" fill="#22c55e" rx="5"/>
        <text x="140" y="350" text-anchor="end" class="row">meli_proxyy</text>
        <text x="660" y="350" text-anchor="start" class="score">85.9% (S:100%)</text><rect x="150" y="380" width="500" height="30" fill="#eee" rx="5"/><rect x="150" y="380" width="438.35" height="30" fill="#22c55e" rx="5"/>
        <text x="140" y="400" text-anchor="end" class="row">ViProxys</text>
        <text x="660" y="400" text-anchor="start" class="score">87.7% (S:100%)</text><rect x="150" y="430" width="500" height="30" fill="#eee" rx="5"/><rect x="150" y="430" width="465.65" height="30" fill="#22c55e" rx="5"/>
        <text x="140" y="450" text-anchor="end" class="row">heyatserver</text>
        <text x="660" y="450" text-anchor="start" class="score">93.1% (S:100%)</text><rect x="150" y="480" width="500" height="30" fill="#eee" rx="5"/><rect x="150" y="480" width="431.15000000000003" height="30" fill="#22c55e" rx="5"/>
        <text x="140" y="500" text-anchor="end" class="row">ShadowsocksM</text>
        <text x="660" y="500" text-anchor="start" class="score">86.2% (S:100%)</text><rect x="150" y="530" width="500" height="30" fill="#eee" rx="5"/><rect x="150" y="530" width="384.95" height="30" fill="#22c55e" rx="5"/>
        <text x="140" y="550" text-anchor="end" class="row">hajmvpn</text>
        <text x="660" y="550" text-anchor="start" class="score">77.0% (S:100%)</text><rect x="150" y="580" width="500" height="30" fill="#eee" rx="5"/><rect x="150" y="580" width="75.0" height="30" fill="#ef4444" rx="5"/>
        <text x="140" y="600" text-anchor="end" class="row">daily_configs</text>
        <text x="660" y="600" text-anchor="start" class="score">15.0% (S:0%)</text><rect x="150" y="630" width="500" height="30" fill="#eee" rx="5"/><rect x="150" y="630" width="400.20000000000005" height="30" fill="#22c55e" rx="5"/>
        <text x="140" y="650" text-anchor="end" class="row">FreeStrongVpn</text>
        <text x="660" y="650" text-anchor="start" class="score">80.0% (S:100%)</text><rect x="150" y="680" width="500" height="30" fill="#eee" rx="5"/><rect x="150" y="680" width="380.0" height="30" fill="#22c55e" rx="5"/>
        <text x="140" y="700" text-anchor="end" class="row">ConfigsHUB2</text>
        <text x="660" y="700" text-anchor="start" class="score">76.0% (S:100%)</text><rect x="150" y="730" width="500" height="30" fill="#eee" rx="5"/><rect x="150" y="730" width="402.75" height="30" fill="#22c55e" rx="5"/>
        <text x="140" y="750" text-anchor="end" class="row">FreakConfig</text>
        <text x="660" y="750" text-anchor="start" class="score">80.5% (S:100%)</text><rect x="150" y="780" width="500" height="30" fill="#eee" rx="5"/><rect x="150" y="780" width="477.65" height="30" fill="#22c55e" rx="5"/>
        <text x="140" y="800" text-anchor="end" class="row">v2rayNG_021</text>
        <text x="660" y="800" text-anchor="start" class="score">95.5% (S:100%)</text><rect x="150" y="830" width="500" height="30" fill="#eee" rx="5"/><rect x="150" y="830" width="438.54999999999995" height="30" fill="#22c55e" rx="5"/>
        <text x="140" y="850" text-anchor="end" class="row">DailyV2RY</text>
        <text x="660" y="850" text-anchor="start" class="score">87.7% (S:100%)</text><rect x="150" y="880" width="500" height="30" fill="#eee" rx="5"/><rect x="150" y="880" width="361.4" height="30" fill="#22c55e" rx="5"/>
        <text x="140" y="900" text-anchor="end" class="row">FreeV2rays</text>
        <text x="660" y="900" text-anchor="start" class="score">72.3% (S:100%)</text><rect x="150" y="930" width="500" height="30" fill="#eee" rx="5"/><rect x="150" y="930" width="497.95000000000005" height="30" fill="#22c55e" rx="5"/>
        <text x="140" y="950" text-anchor="end" class="row">DirectVPN</text>
        <text x="660" y="950" text-anchor="start" class="score">99.6% (S:100%)</text><rect x="150" y="980" width="500" height="30" fill="#eee" rx="5"/><rect x="150" y="980" width="75.0" height="30" fill="#ef4444" rx="5"/>
        <text x="140" y="1000" text-anchor="end" class="row">proxystore11</text>
        <text x="660" y="1000" text-anchor="start" class="score">15.0% (S:0%)</text><rect x="150" y="1030" width="500" height="30" fill="#eee" rx="5"/><rect x="150" y="1030" width="442.9" height="30" fill="#22c55e" rx="5"/>
        <text x="140" y="1050" text-anchor="end" class="row">VmessProtocol</text>
        <text x="660" y="1050" text-anchor="start" class="score">88.6% (S:100%)</text><rect x="150" y="1080" width="500" height="30" fill="#eee" rx="5"/><rect x="150" y="1080" width="395.7" height="30" fill="#22c55e" rx="5"/>
        <text x="140" y="1100" text-anchor="end" class="row">flyv2ray</text>
        <text x="660" y="1100" text-anchor="start" class="score">79.1% (S:100%)</text><rect x="150" y="1130" width="500" height="30" fill="#eee" rx="5"/><rect x="150" y="1130" width="498.8" height="30" fill="#22c55e" rx="5"/>
        <text x="140" y="1150" text-anchor="end" class="row">free4allVPN</text>
        <text x="660" y="1150" text-anchor="start" class="score">99.8% (S:100%)</text><rect x="150" y="1180" width="500" height="30" fill="#eee" rx="5"/><rect x="150" y="1180" width="404.75" height="30" fill="#22c55e" rx="5"/>
        <text x="140" y="1200" text-anchor="end" class="row">configV2rayForFree</text>
        <text x="660" y="1200" text-anchor="start" class="score">81.0% (S:100%)</text><rect x="150" y="1230" width="500" height="30" fill="#eee" rx="5"/><rect x="150" y="1230" width="75.0" height="30" fill="#ef4444" rx="5"/>
        <text x="140" y="1250" text-anchor="end" class="row">UnlimitedDev</text>
        <text x="660" y="1250" text-anchor="start" class="score">15.0% (S:0%)</text><rect x="150" y="1280" width="500" height="30" fill="#eee" rx="5"/><rect x="150" y="1280" width="415.6" height="30" fill="#22c55e" rx="5"/>
        <text x="140" y="1300" text-anchor="end" class="row">shokhmiplus</text>
        <text x="660" y="1300" text-anchor="start" class="score">83.1% (S:100%)</text><rect x="150" y="1330" width="500" height="30" fill="#eee" rx="5"/><rect x="150" y="1330" width="391.25" height="30" fill="#22c55e" rx="5"/>
        <text x="140" y="1350" text-anchor="end" class="row">hormozvpn</text>
        <text x="660" y="1350" text-anchor="start" class="score">78.2% (S:100%)</text><rect x="150" y="1380" width="500" height="30" fill="#eee" rx="5"/><rect x="150" y="1380" width="421.2" height="30" fill="#22c55e" rx="5"/>
        <text x="140" y="1400" text-anchor="end" class="row">nofiltering2</text>
        <text x="660" y="1400" text-anchor="start" class="score">84.2% (S:100%)</text><rect x="150" y="1430" width="500" height="30" fill="#eee" rx="5"/><rect x="150" y="1430" width="75.0" height="30" fill="#ef4444" rx="5"/>
        <text x="140" y="1450" text-anchor="end" class="row">daily_configs</text>
        <text x="660" y="1450" text-anchor="start" class="score">15.0% (S:0%)</text><rect x="150" y="1480" width="500" height="30" fill="#eee" rx="5"/><rect x="150" y="1480" width="75.0" height="30" fill="#ef4444" rx="5"/>
        <text x="140" y="1500" text-anchor="end" class="row">mobilesignal</text>
        <text x="660" y="1500" text-anchor="start" class="score">15.0% (S:0%)</text><rect x="150" y="1530" width="500" height="30" fill="#eee" rx="5"/><rect x="150" y="1530" width="448.40000000000003" height="30" fill="#22c55e" rx="5"/>
        <text x="140" y="1550" text-anchor="end" class="row">vpnowl</text>
        <text x="660" y="1550" text-anchor="start" class="score">89.7% (S:100%)</text><rect x="150" y="1580" width="500" height="30" fill="#eee" rx="5"/><rect x="150" y="1580" width="339.75" height="30" fill="#eab308" rx="5"/>
        <text x="140" y="1600" text-anchor="end" class="row">Artemisvpn1</text>
        <text x="660" y="1600" text-anchor="start" class="score">68.0% (S:100%)</text><rect x="150" y="1630" width="500" height="30" fill="#eee" rx="5"/><rect x="150" y="1630" width="332.55" height="30" fill="#eab308" rx="5"/>
        <text x="140" y="1650" text-anchor="end" class="row">ShadowProxy66</text>
        <text x="660" y="1650" text-anchor="start" class="score">66.5% (S:100%)</text><rect x="150" y="1680" width="500" height="30" fill="#eee" rx="5"/><rect x="150" y="1680" width="444.65000000000003" height="30" fill="#22c55e" rx="5"/>
        <text x="140" y="1700" text-anchor="end" class="row">v2ray_free_conf</text>
        <text x="660" y="1700" text-anchor="start" class="score">88.9% (S:100%)</text><rect x="150" y="1730" width="500" height="30" fill="#eee" rx="5"/><rect x="150" y="1730" width="453.45" height="30" fill="#22c55e" rx="5"/>
        <text x="140" y="1750" text-anchor="end" class="row">V2rayNG3</text>
        <text x="660" y="1750" text-anchor="start" class="score">90.7% (S:100%)</text><rect x="150" y="1780" width="500" height="30" fill="#eee" rx="5"/><rect x="150" y="1780" width="435.85" height="30" fill="#22c55e" rx="5"/>
        <text x="140" y="1800" text-anchor="end" class="row">free_config47</text>
        <text x="660" y="1800" text-anchor="start" class="score">87.2% (S:100%)</text><rect x="150" y="1830" width="500" height="30" fill="#eee" rx="5"/><rect x="150" y="1830" width="75.0" height="30" fill="#ef4444" rx="5"/>
        <text x="140" y="1850" text-anchor="end" class="row">Free_V2ray_Config</text>
        <text x="660" y="1850" text-anchor="start" class="score">15.0% (S:0%)</text><rect x="150" y="1880" width="500" height="30" fill="#eee" rx="5"/><rect x="150" y="1880" width="397.5" height="30" fill="#22c55e" rx="5"/>
        <text x="140" y="1900" text-anchor="end" class="row">CYGAG</text>
        <text x="660" y="1900" text-anchor="start" class="score">79.5% (S:100%)</text><rect x="150" y="1930" width="500" height="30" fill="#eee" rx="5"/><rect x="150" y="1930" width="418.8" height="30" fill="#22c55e" rx="5"/>
        <text x="140" y="1950" text-anchor="end" class="row">Awlix_ir</text>
        <text x="660" y="1950" text-anchor="start" class="score">83.8% (S:100%)</text><rect x="150" y="1980" width="500" height="30" fill="#eee" rx="5"/><rect x="150" y="1980" width="467.04999999999995" height="30" fill="#22c55e" rx="5"/>
        <text x="140" y="2000" text-anchor="end" class="row">vmess_vless_v2rayng</text>
        <text x="660" y="2000" text-anchor="start" class="score">93.4% (S:100%)</text><rect x="150" y="2030" width="500" height="30" fill="#eee" rx="5"/><rect x="150" y="2030" width="383.95000000000005" height="30" fill="#22c55e" rx="5"/>
        <text x="140" y="2050" text-anchor="end" class="row">vpnfail_vless</text>
        <text x="660" y="2050" text-anchor="start" class="score">76.8% (S:100%)</text><rect x="150" y="2080" width="500" height="30" fill="#eee" rx="5"/><rect x="150" y="2080" width="459.79999999999995" height="30" fill="#22c55e" rx="5"/>
        <text x="140" y="2100" text-anchor="end" class="row">OutlineReleasedKey</text>
        <text x="660" y="2100" text-anchor="start" class="score">92.0% (S:100%)</text><rect x="150" y="2130" width="500" height="30" fill="#eee" rx="5"/><rect x="150" y="2130" width="75.0" height="30" fill="#ef4444" rx="5"/>
        <text x="140" y="2150" text-anchor="end" class="row">v2ray_configs_pool</text>
        <text x="660" y="2150" text-anchor="start" class="score">15.0% (S:0%)</text><rect x="150" y="2180" width="500" height="30" fill="#eee" rx="5"/><rect x="150" y="2180" width="432.0" height="30" fill="#22c55e" rx="5"/>
        <text x="140" y="2200" text-anchor="end" class="row">poroxybaz</text>
        <text x="660" y="2200" text-anchor="start" class="score">86.4% (S:100%)</text><rect x="150" y="2230" width="500" height="30" fill="#eee" rx="5"/><rect x="150" y="2230" width="345.09999999999997" height="30" fill="#eab308" rx="5"/>
        <text x="140" y="2250" text-anchor="end" class="row">ZibaNabz</text>
        <text x="660" y="2250" text-anchor="start" class="score">69.0% (S:100%)</text><rect x="150" y="2280" width="500" height="30" fill="#eee" rx="5"/><rect x="150" y="2280" width="443.1" height="30" fill="#22c55e" rx="5"/>
        <text x="140" y="2300" text-anchor="end" class="row">V2pedia</text>
        <text x="660" y="2300" text-anchor="start" class="score">88.6% (S:100%)</text><rect x="150" y="2330" width="500" height="30" fill="#eee" rx="5"/><rect x="150" y="2330" width="402.5" height="30" fill="#22c55e" rx="5"/>
        <text x="140" y="2350" text-anchor="end" class="row">xs_filternet</text>
        <text x="660" y="2350" text-anchor="start" class="score">80.5% (S:100%)</text></svg>